<?xml version="1.0" standalone="no"?><svg xmlns="http://www.w3.org/2000/svg" viewBox="0 0 1440 320"><path fill="#0099ff" fill-opacity="1" d="M0,256L6.2,224C12.3,192,25,128,37,128C49.2,128,62,192,74,192C86.2,192,98,128,111,90.7C123.1,53,135,43,148,37.3C160,32,172,32,185,58.7C196.9,85,209,139,222,186.7C233.8,235,246,277,258,293.3C270.8,309,283,299,295,250.7C307.7,203,320,117,332,80C344.6,43,357,53,369,58.7C381.5,64,394,64,406,80C418.5,96,431,128,443,165.3C455.4,203,468,245,480,261.3C492.3,277,505,267,517,245.3C529.2,224,542,192,554,197.3C566.2,203,578,245,591,234.7C603.1,224,615,160,628,160C640,160,652,224,665,234.7C676.9,245,689,203,702,202.7C713.8,203,726,245,738,250.7C750.8,256,763,224,775,192C787.7,160,800,128,812,106.7C824.6,85,837,75,849,74.7C861.5,75,874,85,886,90.7C898.5,96,911,96,923,106.7C935.4,117,948,139,960,165.3C972.3,192,985,224,997,208C1009.2,192,1022,128,1034,138.7C1046.2,149,1058,235,1071,261.3C1083.1,288,1095,256,1108,250.7C1120,245,1132,267,1145,234.7C1156.9,203,1169,117,1182,101.3C1193.8,85,1206,139,1218,165.3C1230.8,192,1243,192,1255,165.3C1267.7,139,1280,85,1292,58.7C1304.6,32,1317,32,1329,37.3C1341.5,43,1354,53,1366,69.3C1378.5,85,1391,107,1403,138.7C1415.4,171,1428,213,1434,234.7L1440,256L1440,0L1433.8,0C1427.7,0,1415,0,1403,0C1390.8,0,1378,0,1366,0C1353.8,0,1342,0,1329,0C1316.9,0,1305,0,1292,0C1280,0,1268,0,1255,0C1243.1,0,1231,0,1218,0C1206.2,0,1194,0,1182,0C1169.2,0,1157,0,1145,0C1132.3,0,1120,0,1108,0C1095.4,0,1083,0,1071,0C1058.5,0,1046,0,1034,0C1021.5,0,1009,0,997,0C984.6,0,972,0,960,0C947.7,0,935,0,923,0C910.8,0,898,0,886,0C873.8,0,862,0,849,0C836.9,0,825,0,812,0C800,0,788,0,775,0C763.1,0,751,0,738,0C726.2,0,714,0,702,0C689.2,0,677,0,665,0C652.3,0,640,0,628,0C615.4,0,603,0,591,0C578.5,0,566,0,554,0C541.5,0,529,0,517,0C504.6,0,492,0,480,0C467.7,0,455,0,443,0C430.8,0,418,0,406,0C393.8,0,382,0,369,0C356.9,0,345,0,332,0C320,0,308,0,295,0C283.1,0,271,0,258,0C246.2,0,234,0,222,0C209.2,0,197,0,185,0C172.3,0,160,0,148,0C135.4,0,123,0,111,0C98.5,0,86,0,74,0C61.5,0,49,0,37,0C24.6,0,12,0,6,0L0,0Z"></path></svg>