<?xml version="1.0" standalone="no"?><svg xmlns="http://www.w3.org/2000/svg" viewBox="0 0 1440 320"><path fill="#0099ff" fill-opacity="1" d="M0,256L6.2,224C12.3,192,25,128,37,128C49.2,128,62,192,74,192C86.2,192,98,128,111,90.7C123.1,53,135,43,148,37.3C160,32,172,32,185,58.7C196.9,85,209,139,222,186.7C233.8,235,246,277,258,293.3C270.8,309,283,299,295,250.7C307.7,203,320,117,332,80C344.6,43,357,53,369,58.7C381.5,64,394,64,406,80C418.5,96,431,128,443,165.3C455.4,203,468,245,480,261.3C492.3,277,505,267,517,245.3C529.2,224,542,192,554,197.3C566.2,203,578,245,591,234.7C603.1,224,615,160,628,160C640,160,652,224,665,234.7C676.9,245,689,203,702,202.7C713.8,203,726,245,738,250.7C750.8,256,763,224,775,192C787.7,160,800,128,812,106.7C824.6,85,837,75,849,74.7C861.5,75,874,85,886,90.7C898.5,96,911,96,923,106.7C935.4,117,948,139,960,165.3C972.3,192,985,224,997,208C1009.2,192,1022,128,1034,138.7C1046.2,149,1058,235,1071,261.3C1083.1,288,1095,256,1108,250.7C1120,245,1132,267,1145,234.7C1156.9,203,1169,117,1182,101.3C1193.8,85,1206,139,1218,165.3C1230.8,192,1243,192,1255,165.3C1267.7,139,1280,85,1292,58.7C1304.6,32,1317,32,1329,37.3C1341.5,43,1354,53,1366,69.3C1378.5,85,1391,107,1403,138.7C1415.4,171,1428,213,1434,234.7L1440,256L1440,320L1433.8,320C1427.7,320,1415,320,1403,320C1390.8,320,1378,320,1366,320C1353.8,320,1342,320,1329,320C1316.9,320,1305,320,1292,320C1280,320,1268,320,1255,320C1243.1,320,1231,320,1218,320C1206.2,320,1194,320,1182,320C1169.2,320,1157,320,1145,320C1132.3,320,1120,320,1108,320C1095.4,320,1083,320,1071,320C1058.5,320,1046,320,1034,320C1021.5,320,1009,320,997,320C984.6,320,972,320,960,320C947.7,320,935,320,923,320C910.8,320,898,320,886,320C873.8,320,862,320,849,320C836.9,320,825,320,812,320C800,320,788,320,775,320C763.1,320,751,320,738,320C726.2,320,714,320,702,320C689.2,320,677,320,665,320C652.3,320,640,320,628,320C615.4,320,603,320,591,320C578.5,320,566,320,554,320C541.5,320,529,320,517,320C504.6,320,492,320,480,320C467.7,320,455,320,443,320C430.8,320,418,320,406,320C393.8,320,382,320,369,320C356.9,320,345,320,332,320C320,320,308,320,295,320C283.1,320,271,320,258,320C246.2,320,234,320,222,320C209.2,320,197,320,185,320C172.3,320,160,320,148,320C135.4,320,123,320,111,320C98.5,320,86,320,74,320C61.5,320,49,320,37,320C24.6,320,12,320,6,320L0,320Z"></path></svg>